<?xml version="1.0" encoding="utf-8"?>
<!-- Generator: Adobe Illustrator 23.0.1, SVG Export Plug-In . SVG Version: 6.00 Build 0)  -->
<svg version="1.1" id="Layer_1" xmlns="http://www.w3.org/2000/svg" xmlns:xlink="http://www.w3.org/1999/xlink" x="0px" y="0px"
	 viewBox="0 0 3000 3000" style="enable-background:new 0 0 3000 3000;" xml:space="preserve">
<style type="text/css">
	.st0{fill:#FFFFFF;}
</style>
<g>
	<g>
		<path class="st0" d="M2527.02,1503.68c-6.89,14.05-14.32,28.11-22.27,41.9c-80.08,141.07-198.34,252.7-354.79,335.44
			c-12.2,6.63-24.93,12.73-37.65,18.83c-50.12-66.29-133.91-158.83-264.9-253.5c0,0,10.34-11.14,25.46-30.49
			c18.56-23.87,44.55-60.19,67.88-103.15c0,0,31.02,21.21,75.84,28.9c30.76,5.3,67.62,3.98,105.54-14.59
			c0,0,27.58,29.17,63.38,22.27c0,0,23.6-3.18,48.53-40.04c0,0,36.59,32.88,80.08,29.7c0,0,50.91,4.51,87.77-44.55
			c0,0,60.19,34.74,115.61,13.26C2517.48,1507.66,2521.19,1506.6,2527.02,1503.68z"/>
		<path class="st0" d="M2624.87,1074.64c0,40.31-2.12,79.82-6.63,118.53c-162.81,13.79-320.85,12.46-433.55-20.95
			c-62.05-18.3-110.31-46.4-138.15-87.24c0,0-33.68-59.4,25.45-86.71c30.49,13.52,56.75,34.47,59.93,37.12
			c-8.22-27.58-20.42-47.46-33.94-62.05c4.51-3.45,7.42-9.81-0.8-22.27c-1.59-2.12-2.92-3.98-3.98-5.57
			c7.42-31.55,5.04-58.87-13.26-94.66c0,0-92.28-150.08-201,3.18l-67.62,106.6c0,0-0.27,0.27-1.06,1.06
			c-0.53,0.27-0.79,0.8-1.33,1.33c-6.1,5.04-23.07,18.3-49.32,27.31c-4.24,1.59-8.75,2.92-13.52,3.98
			c-0.53,0.27-1.06,0.27-1.59,0.53c-2.92,0.8-6.1,1.33-9.28,1.86c-3.45,0.8-6.63,1.33-10.08,1.59c-2.65,0.27-5.3,0.53-8.22,0.8
			c-3.71,0.27-7.43,0.53-11.4,0.53h-1.86c0,0-61.78-2.65-109.51-45.34c0,0-1.33-0.8-3.45-2.65c-0.8-0.53-1.59-1.06-2.65-1.86
			c-18.83-13.79-79.55-58.6-156.45-114.29c-5.83-4.24-11.67-8.49-17.5-12.73c-117.47-84.59-265.96-190.12-362.75-252.17
			c-32.08-20.42-58.34-36.33-75.84-44.81c0,0-278.96-132.85-500.64-393.24h1107.34c335.7,0,593.71,85.38,773.23,255.89
			C2535.25,559.16,2624.87,787.73,2624.87,1074.64z"/>
		<path class="st0" d="M888.03,1435.8c0,0-26.52,85.65,74.51,127.28c0,0-26.52,21.48-35.53,52.77c-3.71,12.46-4.51,27.05,0.53,42.16
			c0,0,14.58,44.02,63.38,54.1c0,0-26.25,64.17,21.74,103.41c0,0,37.92,28.37,98.91,28.37c0,0-37.12,102.88,11.14,129.4
			c0,0,48.26,35,122.77,26.25c0,0-0.53,2.12-1.06,5.57h-3.45v278.16c-11.14,543.86-689.96,590.26-836.34,593.97H380.5V135.42
			c73.72,135.5,175.81,288.24,314.49,431.96c0,0,50.91,45.61,13.26,46.14c0,0-136.03,8.75,63.38,89.89c0,0,44.81,17.24,0,24.13
			c0,0-89.63,14.05,57.01,100.76c0,0,33.94,12.2,20.68,33.41c-12.2,24.39-10.34,51.18,2.65,73.98
			c19.62,36.59,66.03,63.64,123.57,57.28h17.77c0,0-50.65,140.27,124.89,118.26c0,0-28.37,137.36,122.77,127.28
			c6.36-0.53,12.99-1.06,19.89-2.12c0,0,6.1,51.71,62.31,90.16c33.68,23.07,85.12,41.37,163.61,41.37c0,0-32.35,39.78-65.76,92.01
			C1421.01,1459.93,1019.55,1416.18,888.03,1435.8z"/>
	</g>
</g>
</svg>
